<?xml version="1.0" encoding="UTF-8"?>
<svg id="Layer_2" data-name="Layer 2" xmlns="http://www.w3.org/2000/svg" viewBox="0 0 83.6 145.8">
  <defs>
    <style>
      .cls-1 {
        fill: #231f20;
      }
    </style>
  </defs>
  <g id="Layer_5" data-name="Layer 5">
    <g>
      <g>
        <path class="cls-1" d="m44.5,103.4v-33.1s0-24.6,0-24.6c.1-5.4-1-9.3-3.6-11.9-3.2-3.3-8.7-4.6-17.9-4.5v.3s1,.1,1,.1c9.4,1.4,15.6,2.4,15.6,15.9v57.7c-.1,5.4,1,9.3,3.6,11.9,3.1,3.1,8.2,4.5,16.4,4.5s.9,0,1.4,0v-.3s-1-.1-1-.1c-9.4-1.4-15.6-2.4-15.6-15.9Z"/>
        <path class="cls-1" d="m63.3,72.1c-2,3.3-5.1,5.3-8,7.2-4.3,2.8-8.4,5.5-8.4,12h0c0,.1.1.1.1.1,10.5-.4,16.1-6.9,16.5-19.3v-.5s-.2.4-.2.4Z"/>
        <path class="cls-1" d="m36.5,66.9h.1s0-.1,0-.1c0-6.5-4.1-9.2-8.4-12-2.9-1.9-6-3.9-8-7.2l-.3-.4v.5c.5,12.4,6,18.8,16.5,19.3Z"/>
        <path class="cls-1" d="m45.1,40.6l.3-.6c1.9-4.5,8-8.7,14.7-10.2l1.1-.2h-1.2c-12.4,0-14.8.8-15,10.4v.6Z"/>
        <path class="cls-1" d="m24.1,119.5l-1.1.2h1.2c12.4,0,14.8-.8,15-10.4v-.6s-.2.6-.2.6c-1.9,4.5-8,8.7-14.7,10.2Z"/>
        <ellipse class="cls-1" cx="42.1" cy="24.8" rx="4.2" ry="4.2"/>
      </g>
      <path class="cls-1" d="m41.8,145.8C18.7,145.8,0,127.3,0,104.4v-63C0,18.6,18.7,0,41.8,0s41.8,18.6,41.8,41.4v63c0,22.8-18.7,41.4-41.8,41.4ZM41.8,2C19.8,2,2,19.6,2,41.4v63c0,21.7,17.9,39.4,39.8,39.4s39.8-17.7,39.8-39.4v-63C81.6,19.6,63.7,2,41.8,2Z"/>
    </g>
  </g>
</svg>